<svg xmlns="http://www.w3.org/2000/svg" viewBox="0 0 800 600" fill="none">
  <defs>
    <linearGradient id="bg" x1="0" y1="0" x2="800" y2="600" gradientUnits="userSpaceOnUse">
      <stop offset="0" stop-color="#F0F4F8"/>
      <stop offset="1" stop-color="#E2E8F0"/>
    </linearGradient>
    <filter id="shadow" x="-5%" y="-5%" width="110%" height="110%">
      <feDropShadow dx="0" dy="2" stdDeviation="6" flood-color="#000" flood-opacity="0.08"/>
    </filter>
  </defs>

  <!-- Background transparent -->

  <!-- Browser chrome -->
  <rect x="30" y="20" width="740" height="560" rx="10" fill="#FFFFFF" stroke="#E2E8F0" stroke-width="1" filter="url(#shadow)"/>
  <!-- Title bar -->
  <rect x="30" y="20" width="740" height="32" rx="10" fill="#F1F5F9"/>
  <rect x="30" y="42" width="740" height="10" fill="#F1F5F9"/>
  <!-- Traffic lights -->
  <circle cx="50" cy="36" r="5" fill="#FF5F57"/>
  <circle cx="68" cy="36" r="5" fill="#FEBC2E"/>
  <circle cx="86" cy="36" r="5" fill="#28C840"/>
  <!-- URL bar -->
  <rect x="130" y="28" width="280" height="16" rx="4" fill="#E2E8F0"/>
  <text x="142" y="40" font-family="Inter, system-ui, sans-serif" font-size="8" fill="#64748B">gratitude.hospitalityai.app/dashboard</text>

  <!-- Sidebar -->
  <rect x="30" y="52" width="150" height="528" fill="#FFFFFF"/>
  <rect x="179" y="52" width="1" height="528" fill="#E2E8F0"/>

  <!-- Sidebar header -->
  <rect x="46" y="64" width="26" height="26" rx="6" fill="#059669"/>
  <text x="53" y="82" font-family="Inter, system-ui, sans-serif" font-size="13" font-weight="700" fill="#FFFFFF">G</text>
  <text x="80" y="74" font-family="Inter, system-ui, sans-serif" font-size="12" font-weight="700" fill="#059669">Gratitude</text>
  <text x="80" y="86" font-family="Inter, system-ui, sans-serif" font-size="8" fill="#94A3B8">Dashboard</text>

  <!-- Active menu item: Overview -->
  <rect x="42" y="102" width="126" height="28" rx="6" fill="#ECFDF5"/>
  <rect x="42" y="102" width="3" height="28" rx="1" fill="#059669"/>
  <text x="58" y="120" font-family="Inter, system-ui, sans-serif" font-size="10" font-weight="600" fill="#059669">Overview</text>

  <!-- Menu items -->
  <text x="58" y="148" font-family="Inter, system-ui, sans-serif" font-size="10" fill="#64748B">Registro Mance</text>
  <text x="58" y="168" font-family="Inter, system-ui, sans-serif" font-size="10" fill="#64748B">Staff</text>
  <text x="58" y="188" font-family="Inter, system-ui, sans-serif" font-size="10" fill="#64748B">Settori</text>
  <text x="58" y="208" font-family="Inter, system-ui, sans-serif" font-size="10" fill="#64748B">Distribuzione</text>
  <text x="58" y="228" font-family="Inter, system-ui, sans-serif" font-size="10" fill="#64748B">Report</text>
  <text x="58" y="248" font-family="Inter, system-ui, sans-serif" font-size="10" fill="#64748B">QR Codes</text>
  <text x="58" y="268" font-family="Inter, system-ui, sans-serif" font-size="10" fill="#64748B">Feedback</text>
  <text x="58" y="288" font-family="Inter, system-ui, sans-serif" font-size="10" fill="#64748B">Classifica</text>
  <text x="58" y="308" font-family="Inter, system-ui, sans-serif" font-size="10" fill="#64748B">Report Fiscale</text>
  <text x="58" y="328" font-family="Inter, system-ui, sans-serif" font-size="10" fill="#64748B">Utenti</text>
  <text x="58" y="348" font-family="Inter, system-ui, sans-serif" font-size="10" fill="#64748B">Impostazioni</text>
  <text x="58" y="368" font-family="Inter, system-ui, sans-serif" font-size="10" fill="#64748B">Audit Log</text>

  <!-- Main content area -->
  <!-- Header row -->
  <text x="200" y="76" font-family="Inter, system-ui, sans-serif" font-size="16" font-weight="700" fill="#0F172A">Overview</text>
  <text x="200" y="92" font-family="Inter, system-ui, sans-serif" font-size="9" fill="#94A3B8">Panoramica attivita mance</text>

  <!-- Date range picker -->
  <rect x="620" y="62" width="136" height="26" rx="6" fill="#FFFFFF" stroke="#E2E8F0" stroke-width="1"/>
  <text x="632" y="79" font-family="Inter, system-ui, sans-serif" font-size="8" fill="#64748B">01/03/2026 - 31/03/2026</text>

  <!-- KPI Cards Row -->
  <!-- Card 1: Mance Totali -->
  <rect x="196" y="104" width="108" height="68" rx="8" fill="#FFFFFF" stroke="#E2E8F0" stroke-width="1"/>
  <text x="210" y="120" font-family="Inter, system-ui, sans-serif" font-size="8" fill="#94A3B8">Mance Totali</text>
  <text x="210" y="142" font-family="Inter, system-ui, sans-serif" font-size="18" font-weight="700" fill="#059669">€2.070</text>
  <text x="210" y="160" font-family="Inter, system-ui, sans-serif" font-size="8" fill="#22C55E">+12,3% vs prec.</text>

  <!-- Card 2: Conteggio -->
  <rect x="312" y="104" width="108" height="68" rx="8" fill="#FFFFFF" stroke="#E2E8F0" stroke-width="1"/>
  <text x="326" y="120" font-family="Inter, system-ui, sans-serif" font-size="8" fill="#94A3B8">Conteggio</text>
  <text x="326" y="142" font-family="Inter, system-ui, sans-serif" font-size="18" font-weight="700" fill="#0F172A">53</text>
  <text x="326" y="160" font-family="Inter, system-ui, sans-serif" font-size="8" fill="#22C55E">+8,2% vs prec.</text>

  <!-- Card 3: Media -->
  <rect x="428" y="104" width="108" height="68" rx="8" fill="#FFFFFF" stroke="#E2E8F0" stroke-width="1"/>
  <text x="442" y="120" font-family="Inter, system-ui, sans-serif" font-size="8" fill="#94A3B8">Media</text>
  <text x="442" y="142" font-family="Inter, system-ui, sans-serif" font-size="18" font-weight="700" fill="#0F172A">€39,06</text>
  <text x="442" y="160" font-family="Inter, system-ui, sans-serif" font-size="8" fill="#22C55E">+3,8% vs prec.</text>

  <!-- Card 4: Adoption Rate -->
  <rect x="544" y="104" width="96" height="68" rx="8" fill="#FFFFFF" stroke="#E2E8F0" stroke-width="1"/>
  <text x="556" y="120" font-family="Inter, system-ui, sans-serif" font-size="8" fill="#94A3B8">Adoption Rate</text>
  <text x="556" y="142" font-family="Inter, system-ui, sans-serif" font-size="18" font-weight="700" fill="#0F172A">78%</text>
  <text x="556" y="160" font-family="Inter, system-ui, sans-serif" font-size="8" fill="#22C55E">+5,1% vs prec.</text>

  <!-- Card 5: Rating -->
  <rect x="648" y="104" width="108" height="68" rx="8" fill="#FFFFFF" stroke="#E2E8F0" stroke-width="1"/>
  <text x="662" y="120" font-family="Inter, system-ui, sans-serif" font-size="8" fill="#94A3B8">Rating Medio</text>
  <text x="662" y="142" font-family="Inter, system-ui, sans-serif" font-size="18" font-weight="700" fill="#0F172A">4.2/5</text>
  <text x="662" y="158" font-family="Inter, system-ui, sans-serif" font-size="10" fill="#F59E0B">&#9733;&#9733;&#9733;&#9733;&#9734;</text>

  <!-- Chart Row 1: Trend Chart (2/3) + Source Pie (1/3) -->
  <!-- Trend chart card -->
  <rect x="196" y="182" width="370" height="180" rx="8" fill="#FFFFFF" stroke="#E2E8F0" stroke-width="1"/>
  <text x="212" y="200" font-family="Inter, system-ui, sans-serif" font-size="10" font-weight="600" fill="#334155">Andamento Mance</text>

  <!-- Y axis labels -->
  <text x="210" y="224" font-family="Inter, system-ui, sans-serif" font-size="7" fill="#94A3B8">€400</text>
  <text x="210" y="254" font-family="Inter, system-ui, sans-serif" font-size="7" fill="#94A3B8">€300</text>
  <text x="210" y="284" font-family="Inter, system-ui, sans-serif" font-size="7" fill="#94A3B8">€200</text>
  <text x="210" y="314" font-family="Inter, system-ui, sans-serif" font-size="7" fill="#94A3B8">€100</text>
  <text x="210" y="344" font-family="Inter, system-ui, sans-serif" font-size="7" fill="#94A3B8">€0</text>

  <!-- Grid lines -->
  <line x1="236" y1="220" x2="550" y2="220" stroke="#F1F5F9" stroke-width="1"/>
  <line x1="236" y1="250" x2="550" y2="250" stroke="#F1F5F9" stroke-width="1"/>
  <line x1="236" y1="280" x2="550" y2="280" stroke="#F1F5F9" stroke-width="1"/>
  <line x1="236" y1="310" x2="550" y2="310" stroke="#F1F5F9" stroke-width="1"/>
  <line x1="236" y1="340" x2="550" y2="340" stroke="#F1F5F9" stroke-width="1"/>

  <!-- Line chart -->
  <polyline points="246,310 276,295 306,300 336,265 366,248 396,270 426,235 456,242 486,218 516,230 540,215" stroke="#059669" stroke-width="2" stroke-linecap="round" stroke-linejoin="round" fill="none"/>
  <!-- Area fill -->
  <polygon points="246,310 276,295 306,300 336,265 366,248 396,270 426,235 456,242 486,218 516,230 540,215 540,340 246,340" fill="#059669" opacity="0.06"/>

  <!-- X axis labels -->
  <text x="246" y="354" font-family="Inter, system-ui, sans-serif" font-size="7" fill="#94A3B8">1</text>
  <text x="306" y="354" font-family="Inter, system-ui, sans-serif" font-size="7" fill="#94A3B8">5</text>
  <text x="366" y="354" font-family="Inter, system-ui, sans-serif" font-size="7" fill="#94A3B8">10</text>
  <text x="426" y="354" font-family="Inter, system-ui, sans-serif" font-size="7" fill="#94A3B8">15</text>
  <text x="486" y="354" font-family="Inter, system-ui, sans-serif" font-size="7" fill="#94A3B8">20</text>
  <text x="536" y="354" font-family="Inter, system-ui, sans-serif" font-size="7" fill="#94A3B8">25</text>

  <!-- Source Pie Chart card -->
  <rect x="574" y="182" width="182" height="180" rx="8" fill="#FFFFFF" stroke="#E2E8F0" stroke-width="1"/>
  <text x="590" y="200" font-family="Inter, system-ui, sans-serif" font-size="10" font-weight="600" fill="#334155">Sorgente</text>

  <!-- Pie chart -->
  <circle cx="665" cy="268" r="46" fill="none" stroke="#059669" stroke-width="18" stroke-dasharray="198 92" transform="rotate(-90 665 268)"/>
  <circle cx="665" cy="268" r="46" fill="none" stroke="#F59E0B" stroke-width="18" stroke-dasharray="92 198" stroke-dashoffset="-198" transform="rotate(-90 665 268)"/>
  <!-- Center text -->
  <text x="665" y="264" font-family="Inter, system-ui, sans-serif" font-size="12" font-weight="700" fill="#0F172A" text-anchor="middle">53</text>
  <text x="665" y="276" font-family="Inter, system-ui, sans-serif" font-size="7" fill="#94A3B8" text-anchor="middle">mance</text>

  <!-- Legend -->
  <circle cx="600" cy="338" r="4" fill="#059669"/>
  <text x="610" y="341" font-family="Inter, system-ui, sans-serif" font-size="8" fill="#64748B">Tablet 68%</text>
  <circle cx="674" cy="338" r="4" fill="#F59E0B"/>
  <text x="684" y="341" font-family="Inter, system-ui, sans-serif" font-size="8" fill="#64748B">QR 32%</text>

  <!-- Chart Row 2: Tipologia + Feedback + Employee of Month -->
  <!-- Tipologia Mance -->
  <rect x="196" y="372" width="180" height="194" rx="8" fill="#FFFFFF" stroke="#E2E8F0" stroke-width="1"/>
  <text x="212" y="390" font-family="Inter, system-ui, sans-serif" font-size="10" font-weight="600" fill="#334155">Tipologia Mance</text>

  <!-- Small pie -->
  <circle cx="286" cy="450" r="36" fill="none" stroke="#059669" stroke-width="14" stroke-dasharray="145 81" transform="rotate(-90 286 450)"/>
  <circle cx="286" cy="450" r="36" fill="none" stroke="#3B82F6" stroke-width="14" stroke-dasharray="81 145" stroke-dashoffset="-145" transform="rotate(-90 286 450)"/>
  <text x="286" y="446" font-family="Inter, system-ui, sans-serif" font-size="10" font-weight="700" fill="#0F172A" text-anchor="middle">€2.070</text>
  <text x="286" y="458" font-family="Inter, system-ui, sans-serif" font-size="7" fill="#94A3B8" text-anchor="middle">totale</text>

  <!-- Legend -->
  <circle cx="220" cy="510" r="3" fill="#059669"/>
  <text x="228" y="513" font-family="Inter, system-ui, sans-serif" font-size="8" fill="#64748B">Generiche 64%</text>
  <circle cx="220" cy="526" r="3" fill="#3B82F6"/>
  <text x="228" y="529" font-family="Inter, system-ui, sans-serif" font-size="8" fill="#64748B">Nominative 36%</text>

  <!-- Feedback Distribution -->
  <rect x="384" y="372" width="180" height="194" rx="8" fill="#FFFFFF" stroke="#E2E8F0" stroke-width="1"/>
  <text x="400" y="390" font-family="Inter, system-ui, sans-serif" font-size="10" font-weight="600" fill="#334155">Distribuzione Feedback</text>

  <!-- Horizontal bar chart for stars -->
  <!-- 5 stars -->
  <text x="400" y="418" font-family="Inter, system-ui, sans-serif" font-size="8" fill="#64748B">5&#9733;</text>
  <rect x="420" y="410" width="120" height="10" rx="3" fill="#F1F5F9"/>
  <rect x="420" y="410" width="84" height="10" rx="3" fill="#F59E0B"/>
  <text x="544" y="418" font-family="Inter, system-ui, sans-serif" font-size="7" fill="#64748B">42%</text>

  <!-- 4 stars -->
  <text x="400" y="438" font-family="Inter, system-ui, sans-serif" font-size="8" fill="#64748B">4&#9733;</text>
  <rect x="420" y="430" width="120" height="10" rx="3" fill="#F1F5F9"/>
  <rect x="420" y="430" width="60" height="10" rx="3" fill="#F59E0B"/>
  <text x="544" y="438" font-family="Inter, system-ui, sans-serif" font-size="7" fill="#64748B">30%</text>

  <!-- 3 stars -->
  <text x="400" y="458" font-family="Inter, system-ui, sans-serif" font-size="8" fill="#64748B">3&#9733;</text>
  <rect x="420" y="450" width="120" height="10" rx="3" fill="#F1F5F9"/>
  <rect x="420" y="450" width="24" height="10" rx="3" fill="#F59E0B"/>
  <text x="544" y="458" font-family="Inter, system-ui, sans-serif" font-size="7" fill="#64748B">18%</text>

  <!-- 2 stars -->
  <text x="400" y="478" font-family="Inter, system-ui, sans-serif" font-size="8" fill="#64748B">2&#9733;</text>
  <rect x="420" y="470" width="120" height="10" rx="3" fill="#F1F5F9"/>
  <rect x="420" y="470" width="10" height="10" rx="3" fill="#F59E0B"/>
  <text x="544" y="478" font-family="Inter, system-ui, sans-serif" font-size="7" fill="#64748B">7%</text>

  <!-- 1 star -->
  <text x="400" y="498" font-family="Inter, system-ui, sans-serif" font-size="8" fill="#64748B">1&#9733;</text>
  <rect x="420" y="490" width="120" height="10" rx="3" fill="#F1F5F9"/>
  <rect x="420" y="490" width="4" height="10" rx="2" fill="#F59E0B"/>
  <text x="544" y="498" font-family="Inter, system-ui, sans-serif" font-size="7" fill="#64748B">3%</text>

  <!-- Media rating -->
  <text x="474" y="540" font-family="Inter, system-ui, sans-serif" font-size="9" fill="#94A3B8" text-anchor="middle">Media: 4.2/5</text>

  <!-- Employee of the Month card -->
  <rect x="572" y="372" width="184" height="194" rx="8" fill="#FFFFFF" stroke="#E2E8F0" stroke-width="1"/>
  <text x="588" y="390" font-family="Inter, system-ui, sans-serif" font-size="10" font-weight="600" fill="#334155">Dipendente del Mese</text>

  <!-- Avatar circle -->
  <circle cx="664" cy="430" r="26" fill="#ECFDF5"/>
  <text x="664" y="436" font-family="Inter, system-ui, sans-serif" font-size="16" font-weight="700" fill="#059669" text-anchor="middle">MR</text>
  <!-- Gold medal -->
  <text x="688" y="412" font-family="Inter, system-ui, sans-serif" font-size="16">&#x1F947;</text>

  <!-- Name and sector -->
  <text x="664" y="472" font-family="Inter, system-ui, sans-serif" font-size="11" font-weight="600" fill="#0F172A" text-anchor="middle">Mario Rossi</text>
  <text x="664" y="486" font-family="Inter, system-ui, sans-serif" font-size="9" fill="#94A3B8" text-anchor="middle">Ricevimento</text>

  <!-- Stats -->
  <text x="614" y="516" font-family="Inter, system-ui, sans-serif" font-size="14" font-weight="700" fill="#059669" text-anchor="middle">12</text>
  <text x="614" y="528" font-family="Inter, system-ui, sans-serif" font-size="7" fill="#94A3B8" text-anchor="middle">Mance nom.</text>
  <text x="664" y="516" font-family="Inter, system-ui, sans-serif" font-size="14" font-weight="700" fill="#059669" text-anchor="middle">€340</text>
  <text x="664" y="528" font-family="Inter, system-ui, sans-serif" font-size="7" fill="#94A3B8" text-anchor="middle">Totale</text>
  <text x="714" y="516" font-family="Inter, system-ui, sans-serif" font-size="14" font-weight="700" fill="#059669" text-anchor="middle">4.6</text>
  <text x="714" y="528" font-family="Inter, system-ui, sans-serif" font-size="7" fill="#94A3B8" text-anchor="middle">Rating</text>
</svg>
